# Blender 4.1.1
# www.blender.org
mtllib ResearchStation2.mtl
o Bench
v -0.203531 0.000000 0.465552
v -1.128964 1.176294 0.532951
v -0.203531 0.000000 -0.082869
v -1.135467 1.554697 -0.336648
v 0.283519 0.000000 0.465552
v 1.208952 1.176294 0.532951
v 0.283519 0.000000 -0.082869
v 1.215455 1.554697 -0.336648
v 0.991819 1.358888 -0.113768
v -0.911831 1.358888 -0.113768
vn -0.8441 -0.5224 -0.1205
vn -0.0000 -0.1611 -0.9869
vn 0.8441 -0.5224 -0.1205
vn -0.0000 -0.0572 0.9984
vn -0.0000 -1.0000 -0.0000
vn -0.0000 0.7513 0.6600
vn -0.0000 0.9624 0.2717
vt 0.375000 0.000000
vt 0.625000 0.000000
vt 0.625000 0.125000
vt 0.625000 0.250000
vt 0.375000 0.250000
vt 0.625000 0.500000
vt 0.375000 0.500000
vt 0.625000 0.625000
vt 0.625000 0.750000
vt 0.375000 0.750000
vt 0.625000 1.000000
vt 0.375000 1.000000
vt 0.125000 0.500000
vt 0.125000 0.750000
vt 0.875000 0.500000
vt 0.875000 0.625000
vt 0.875000 0.750000
s 0
usemtl Chrome
f 1/1/1 2/2/1 10/3/1 4/4/1 3/5/1
f 3/5/2 4/4/2 8/6/2 7/7/2
f 7/7/3 8/6/3 9/8/3 6/9/3 5/10/3
f 5/10/4 6/9/4 2/11/4 1/12/4
f 3/13/5 7/7/5 5/10/5 1/14/5
f 8/6/6 4/15/6 10/16/6 9/8/6
f 9/8/7 10/16/7 2/17/7 6/9/7
o GameDisplay
v -0.427196 1.211756 0.429702
v -0.374464 1.229080 0.379727
v -0.427196 1.342052 -0.068937
v -0.374464 1.332714 -0.016876
v 0.578464 1.211756 0.429702
v 0.525733 1.229080 0.379727
v 0.578464 1.342052 -0.068937
v 0.525733 1.332714 -0.016876
v -0.427196 1.238768 0.436760
v -0.427196 1.369064 -0.061879
v 0.578464 1.369064 -0.061879
v 0.578464 1.238768 0.436760
vn -1.0000 -0.0000 -0.0000
vn -0.0000 0.2528 -0.9675
vn 1.0000 -0.0000 -0.0000
vn -0.0000 -0.2528 0.9675
vn -0.0000 -0.9675 -0.2528
vn -0.0000 0.9675 0.2528
vn 0.4113 0.8819 0.2304
vn -0.0000 0.7779 0.6284
vn -0.4113 0.8819 0.2304
vn -0.0000 0.9859 -0.1675
vt 0.375000 0.000000
vt 0.625000 0.000000
vt 0.625000 0.250000
vt 0.375000 0.250000
vt 0.625000 0.500000
vt 0.375000 0.500000
vt 0.625000 0.750000
vt 0.375000 0.750000
vt 0.625000 1.000000
vt 0.375000 1.000000
vt 0.125000 0.500000
vt 0.125000 0.750000
vt 0.638109 0.525579
vt 0.861891 0.525579
vt 0.861891 0.724421
vt 0.638109 0.724421
vt 0.875000 0.500000
vt 0.875000 0.750000
s 0
usemtl Monitor_Black
f 11/18/8 19/19/8 20/20/8 13/21/8
f 13/21/9 20/20/9 21/22/9 17/23/9
f 17/23/10 21/22/10 22/24/10 15/25/10
f 15/25/11 22/24/11 19/26/11 11/27/11
f 13/28/12 17/23/12 15/25/12 11/29/12
f 18/30/13 14/31/13 12/32/13 16/33/13
f 12/32/14 14/31/14 20/34/14 19/35/14
f 14/31/15 18/30/15 21/22/15 20/34/15
f 18/30/16 16/33/16 22/24/16 21/22/16
f 16/33/17 12/32/17 19/35/17 22/24/17
o TargetDisplay
v -0.242478 1.363984 -0.121610
v -0.209118 1.388071 -0.144838
v -0.242478 1.580310 -0.365564
v -0.209118 1.560130 -0.338871
v 0.393746 1.363984 -0.121610
v 0.360386 1.388071 -0.144838
v 0.393746 1.580310 -0.365564
v 0.360386 1.560130 -0.338871
v -0.242478 1.377199 -0.109891
v -0.242478 1.593525 -0.353845
v 0.393746 1.593525 -0.353845
v 0.393746 1.377199 -0.109891
vn -1.0000 -0.0000 -0.0000
vn -0.0000 0.6635 -0.7482
vn 1.0000 -0.0000 -0.0000
vn -0.0000 -0.6635 0.7482
vn -0.0000 -0.7482 -0.6635
vn -0.0000 0.7482 0.6635
vn 0.4113 0.6820 0.6048
vn -0.0000 0.4091 0.9125
vn -0.4113 0.6820 0.6048
vn -0.0000 0.9549 0.2970
vt 0.375000 0.000000
vt 0.625000 0.000000
vt 0.625000 0.250000
vt 0.375000 0.250000
vt 0.625000 0.500000
vt 0.375000 0.500000
vt 0.625000 0.750000
vt 0.375000 0.750000
vt 0.625000 1.000000
vt 0.375000 1.000000
vt 0.125000 0.500000
vt 0.125000 0.750000
vt 0.638109 0.525579
vt 0.861891 0.525579
vt 0.861891 0.724421
vt 0.638109 0.724421
vt 0.875000 0.500000
vt 0.875000 0.750000
s 0
usemtl Monitor_Black
f 23/36/18 31/37/18 32/38/18 25/39/18
f 25/39/19 32/38/19 33/40/19 29/41/19
f 29/41/20 33/40/20 34/42/20 27/43/20
f 27/43/21 34/42/21 31/44/21 23/45/21
f 25/46/22 29/41/22 27/43/22 23/47/22
f 30/48/23 26/49/23 24/50/23 28/51/23
f 24/50/24 26/49/24 32/52/24 31/53/24
f 26/49/25 30/48/25 33/40/25 32/52/25
f 30/48/26 28/51/26 34/42/26 33/40/26
f 28/51/27 24/50/27 31/53/27 34/42/27
